<svg width="876" height="229" viewBox="0 0 876 229" fill="none" xmlns="http://www.w3.org/2000/svg">
<path d="M562.052 18V6.192H569.36V7.452H563.564V11.16H568.46V12.438H563.564V16.722H569.54V18H562.052ZM575.743 18.216C574.879 18.216 574.081 18.06 573.349 17.748C572.629 17.424 571.999 16.998 571.459 16.47L572.359 15.426C572.803 15.87 573.319 16.23 573.907 16.506C574.507 16.77 575.143 16.902 575.815 16.902C576.631 16.902 577.261 16.728 577.705 16.38C578.161 16.032 578.389 15.582 578.389 15.03C578.389 14.61 578.293 14.274 578.101 14.022C577.921 13.77 577.669 13.56 577.345 13.392C577.033 13.224 576.673 13.056 576.265 12.888L574.573 12.15C574.177 11.982 573.781 11.772 573.385 11.52C573.001 11.268 572.677 10.95 572.413 10.566C572.149 10.17 572.017 9.684 572.017 9.108C572.017 8.508 572.179 7.974 572.503 7.506C572.839 7.026 573.301 6.654 573.889 6.39C574.477 6.114 575.143 5.976 575.887 5.976C576.631 5.976 577.315 6.114 577.939 6.39C578.563 6.654 579.091 7.002 579.523 7.434L578.731 8.406C578.347 8.058 577.921 7.788 577.453 7.596C576.985 7.392 576.445 7.29 575.833 7.29C575.149 7.29 574.597 7.446 574.177 7.758C573.757 8.058 573.547 8.478 573.547 9.018C573.547 9.39 573.649 9.696 573.853 9.936C574.069 10.176 574.339 10.374 574.663 10.53C574.987 10.686 575.317 10.836 575.653 10.98L577.309 11.7C577.801 11.892 578.245 12.126 578.641 12.402C579.037 12.666 579.349 12.996 579.577 13.392C579.805 13.788 579.919 14.274 579.919 14.85C579.919 15.474 579.751 16.044 579.415 16.56C579.079 17.064 578.599 17.466 577.975 17.766C577.351 18.066 576.607 18.216 575.743 18.216ZM585.15 18V7.452H581.262V6.192H590.55V7.452H586.662V18H585.15ZM596.159 18.216C595.763 18.216 595.421 18.078 595.133 17.802C594.845 17.514 594.701 17.148 594.701 16.704C594.701 16.248 594.845 15.882 595.133 15.606C595.421 15.318 595.763 15.174 596.159 15.174C596.567 15.174 596.909 15.318 597.185 15.606C597.473 15.882 597.617 16.248 597.617 16.704C597.617 17.148 597.473 17.514 597.185 17.802C596.909 18.078 596.567 18.216 596.159 18.216ZM612.579 18V17.118C613.875 15.978 614.967 14.976 615.855 14.112C616.755 13.236 617.439 12.45 617.907 11.754C618.375 11.058 618.609 10.392 618.609 9.756C618.609 9.096 618.405 8.556 617.997 8.136C617.589 7.716 616.959 7.506 616.107 7.506C615.567 7.506 615.063 7.638 614.595 7.902C614.139 8.166 613.725 8.496 613.353 8.892L612.507 8.046C613.023 7.518 613.575 7.098 614.163 6.786C614.763 6.462 615.471 6.3 616.287 6.3C617.055 6.3 617.715 6.444 618.267 6.732C618.831 7.008 619.263 7.398 619.563 7.902C619.875 8.406 620.031 9 620.031 9.684C620.031 10.404 619.809 11.13 619.365 11.862C618.921 12.594 618.297 13.368 617.493 14.184C616.701 14.988 615.783 15.87 614.739 16.83C615.099 16.794 615.459 16.77 615.819 16.758C616.179 16.734 616.533 16.722 616.881 16.722H620.661V18H612.579ZM626.918 18.216C626.066 18.216 625.334 17.982 624.722 17.514C624.11 17.034 623.636 16.35 623.3 15.462C622.964 14.574 622.796 13.494 622.796 12.222C622.796 10.29 623.162 8.82 623.894 7.812C624.638 6.804 625.646 6.3 626.918 6.3C628.202 6.3 629.21 6.804 629.942 7.812C630.674 8.82 631.04 10.29 631.04 12.222C631.04 13.494 630.872 14.574 630.536 15.462C630.212 16.35 629.738 17.034 629.114 17.514C628.502 17.982 627.77 18.216 626.918 18.216ZM626.918 17.028C627.458 17.028 627.932 16.86 628.34 16.524C628.748 16.176 629.066 15.648 629.294 14.94C629.534 14.22 629.654 13.314 629.654 12.222C629.654 11.118 629.534 10.218 629.294 9.522C629.066 8.826 628.748 8.316 628.34 7.992C627.932 7.656 627.458 7.488 626.918 7.488C626.39 7.488 625.916 7.656 625.496 7.992C625.088 8.316 624.764 8.826 624.524 9.522C624.296 10.218 624.182 11.118 624.182 12.222C624.182 13.314 624.296 14.22 624.524 14.94C624.764 15.648 625.088 16.176 625.496 16.524C625.916 16.86 626.39 17.028 626.918 17.028ZM626.918 13.302C626.618 13.302 626.354 13.194 626.126 12.978C625.91 12.762 625.802 12.468 625.802 12.096C625.802 11.724 625.91 11.436 626.126 11.232C626.354 11.016 626.618 10.908 626.918 10.908C627.23 10.908 627.494 11.016 627.71 11.232C627.926 11.436 628.034 11.724 628.034 12.096C628.034 12.468 627.926 12.762 627.71 12.978C627.494 13.194 627.23 13.302 626.918 13.302ZM633.085 18V17.118C634.381 15.978 635.473 14.976 636.361 14.112C637.261 13.236 637.945 12.45 638.413 11.754C638.881 11.058 639.115 10.392 639.115 9.756C639.115 9.096 638.911 8.556 638.503 8.136C638.095 7.716 637.465 7.506 636.613 7.506C636.073 7.506 635.569 7.638 635.101 7.902C634.645 8.166 634.231 8.496 633.859 8.892L633.013 8.046C633.529 7.518 634.081 7.098 634.669 6.786C635.269 6.462 635.977 6.3 636.793 6.3C637.561 6.3 638.221 6.444 638.773 6.732C639.337 7.008 639.769 7.398 640.069 7.902C640.381 8.406 640.537 9 640.537 9.684C640.537 10.404 640.315 11.13 639.871 11.862C639.427 12.594 638.803 13.368 637.999 14.184C637.207 14.988 636.289 15.87 635.245 16.83C635.605 16.794 635.965 16.77 636.325 16.758C636.685 16.734 637.039 16.722 637.387 16.722H641.167V18H633.085ZM647.172 18.216C646.488 18.216 645.888 18.144 645.372 18C644.856 17.844 644.406 17.646 644.022 17.406C643.65 17.166 643.32 16.914 643.032 16.65L643.77 15.678C644.022 15.906 644.298 16.122 644.598 16.326C644.91 16.518 645.264 16.68 645.66 16.812C646.056 16.932 646.506 16.992 647.01 16.992C647.55 16.992 648.042 16.884 648.486 16.668C648.93 16.452 649.278 16.152 649.53 15.768C649.794 15.372 649.926 14.904 649.926 14.364C649.926 13.572 649.668 12.954 649.152 12.51C648.636 12.066 647.952 11.844 647.1 11.844C646.62 11.844 646.212 11.904 645.876 12.024C645.54 12.144 645.168 12.318 644.76 12.546L643.968 12.042L644.346 6.516H650.844V7.794H645.66L645.354 11.196C645.678 11.052 646.002 10.938 646.326 10.854C646.662 10.77 647.046 10.728 647.478 10.728C648.21 10.728 648.876 10.854 649.476 11.106C650.076 11.358 650.55 11.754 650.898 12.294C651.246 12.822 651.42 13.5 651.42 14.328C651.42 15.156 651.216 15.864 650.808 16.452C650.412 17.028 649.89 17.466 649.242 17.766C648.594 18.066 647.904 18.216 647.172 18.216ZM667.93 13.266C667.534 13.266 667.192 13.128 666.904 12.852C666.616 12.564 666.472 12.198 666.472 11.754C666.472 11.298 666.616 10.932 666.904 10.656C667.192 10.368 667.534 10.224 667.93 10.224C668.338 10.224 668.68 10.368 668.956 10.656C669.244 10.932 669.388 11.298 669.388 11.754C669.388 12.198 669.244 12.564 668.956 12.852C668.68 13.128 668.338 13.266 667.93 13.266ZM689.354 18.216C688.622 18.216 687.944 18.078 687.32 17.802C686.696 17.526 686.15 17.13 685.682 16.614C685.214 16.086 684.848 15.444 684.584 14.688C684.332 13.92 684.206 13.056 684.206 12.096C684.206 10.836 684.434 9.75 684.89 8.838C685.346 7.914 685.97 7.206 686.762 6.714C687.554 6.222 688.466 5.976 689.498 5.976C690.206 5.976 690.836 6.126 691.388 6.426C691.94 6.714 692.384 7.044 692.72 7.416L691.874 8.37C691.574 8.034 691.226 7.77 690.83 7.578C690.434 7.386 689.99 7.29 689.498 7.29C688.742 7.29 688.082 7.488 687.518 7.884C686.966 8.268 686.534 8.814 686.222 9.522C685.91 10.23 685.754 11.076 685.754 12.06C685.754 13.056 685.91 13.914 686.222 14.634C686.534 15.354 686.966 15.912 687.518 16.308C688.082 16.704 688.742 16.902 689.498 16.902C690.038 16.902 690.524 16.788 690.956 16.56C691.388 16.332 691.79 16.008 692.162 15.588L693.008 16.506C692.552 17.046 692.024 17.466 691.424 17.766C690.824 18.066 690.134 18.216 689.354 18.216ZM698.689 18.216C697.801 18.216 697.015 17.97 696.331 17.478C695.647 16.986 695.113 16.284 694.729 15.372C694.345 14.448 694.153 13.338 694.153 12.042C694.153 10.77 694.345 9.684 694.729 8.784C695.113 7.872 695.647 7.176 696.331 6.696C697.015 6.216 697.801 5.976 698.689 5.976C699.577 5.976 700.363 6.216 701.047 6.696C701.731 7.176 702.265 7.872 702.649 8.784C703.033 9.684 703.225 10.77 703.225 12.042C703.225 13.338 703.033 14.448 702.649 15.372C702.265 16.284 701.731 16.986 701.047 17.478C700.363 17.97 699.577 18.216 698.689 18.216ZM698.689 16.902C699.289 16.902 699.811 16.71 700.255 16.326C700.711 15.93 701.059 15.372 701.299 14.652C701.551 13.92 701.677 13.05 701.677 12.042C701.677 11.046 701.551 10.194 701.299 9.486C701.059 8.778 700.711 8.238 700.255 7.866C699.811 7.482 699.289 7.29 698.689 7.29C698.089 7.29 697.561 7.482 697.105 7.866C696.661 8.238 696.313 8.778 696.061 9.486C695.821 10.194 695.701 11.046 695.701 12.042C695.701 13.05 695.821 13.92 696.061 14.652C696.313 15.372 696.661 15.93 697.105 16.326C697.561 16.71 698.089 16.902 698.689 16.902ZM705.954 18V6.192H707.43V16.722H713.28V18H705.954ZM719.195 18.216C718.307 18.216 717.521 17.97 716.837 17.478C716.153 16.986 715.619 16.284 715.235 15.372C714.851 14.448 714.659 13.338 714.659 12.042C714.659 10.77 714.851 9.684 715.235 8.784C715.619 7.872 716.153 7.176 716.837 6.696C717.521 6.216 718.307 5.976 719.195 5.976C720.083 5.976 720.869 6.216 721.553 6.696C722.237 7.176 722.771 7.872 723.155 8.784C723.539 9.684 723.731 10.77 723.731 12.042C723.731 13.338 723.539 14.448 723.155 15.372C722.771 16.284 722.237 16.986 721.553 17.478C720.869 17.97 720.083 18.216 719.195 18.216ZM719.195 16.902C719.795 16.902 720.317 16.71 720.761 16.326C721.217 15.93 721.565 15.372 721.805 14.652C722.057 13.92 722.183 13.05 722.183 12.042C722.183 11.046 722.057 10.194 721.805 9.486C721.565 8.778 721.217 8.238 720.761 7.866C720.317 7.482 719.795 7.29 719.195 7.29C718.595 7.29 718.067 7.482 717.611 7.866C717.167 8.238 716.819 8.778 716.567 9.486C716.327 10.194 716.207 11.046 716.207 12.042C716.207 13.05 716.327 13.92 716.567 14.652C716.819 15.372 717.167 15.93 717.611 16.326C718.067 16.71 718.595 16.902 719.195 16.902ZM725.344 18V6.192H727.18L728.836 11.232L729.412 13.14H729.484L730.042 11.232L731.716 6.192H733.552V18H732.112V12.096C732.112 11.808 732.118 11.478 732.13 11.106C732.154 10.734 732.178 10.35 732.202 9.954C732.238 9.558 732.268 9.186 732.292 8.838C732.328 8.478 732.352 8.172 732.364 7.92H732.31L731.644 10.224L729.952 14.868H728.872L727.216 10.224L726.532 7.92H726.496C726.52 8.172 726.544 8.478 726.568 8.838C726.604 9.186 726.634 9.558 726.658 9.954C726.682 10.35 726.7 10.734 726.712 11.106C726.736 11.478 726.748 11.808 726.748 12.096V18H725.344ZM736.082 18V6.192H739.43C740.234 6.192 740.936 6.288 741.536 6.48C742.148 6.672 742.622 6.978 742.958 7.398C743.306 7.818 743.48 8.376 743.48 9.072C743.48 9.66 743.312 10.194 742.976 10.674C742.64 11.142 742.118 11.466 741.41 11.646V11.718C742.274 11.85 742.946 12.15 743.426 12.618C743.906 13.086 744.146 13.728 744.146 14.544C744.146 15.312 743.96 15.954 743.588 16.47C743.216 16.986 742.694 17.37 742.022 17.622C741.362 17.874 740.588 18 739.7 18H736.082ZM737.576 11.16H739.178C740.186 11.16 740.906 10.998 741.338 10.674C741.782 10.35 742.004 9.858 742.004 9.198C742.004 8.562 741.77 8.112 741.302 7.848C740.846 7.584 740.162 7.452 739.25 7.452H737.576V11.16ZM737.576 16.74H739.484C740.492 16.74 741.272 16.566 741.824 16.218C742.388 15.858 742.67 15.276 742.67 14.472C742.67 13.74 742.394 13.218 741.842 12.906C741.302 12.582 740.516 12.42 739.484 12.42H737.576V16.74ZM749.953 18.216C749.065 18.216 748.279 17.97 747.595 17.478C746.911 16.986 746.377 16.284 745.993 15.372C745.609 14.448 745.417 13.338 745.417 12.042C745.417 10.77 745.609 9.684 745.993 8.784C746.377 7.872 746.911 7.176 747.595 6.696C748.279 6.216 749.065 5.976 749.953 5.976C750.841 5.976 751.627 6.216 752.311 6.696C752.995 7.176 753.529 7.872 753.913 8.784C754.297 9.684 754.489 10.77 754.489 12.042C754.489 13.338 754.297 14.448 753.913 15.372C753.529 16.284 752.995 16.986 752.311 17.478C751.627 17.97 750.841 18.216 749.953 18.216ZM749.953 16.902C750.553 16.902 751.075 16.71 751.519 16.326C751.975 15.93 752.323 15.372 752.563 14.652C752.815 13.92 752.941 13.05 752.941 12.042C752.941 11.046 752.815 10.194 752.563 9.486C752.323 8.778 751.975 8.238 751.519 7.866C751.075 7.482 750.553 7.29 749.953 7.29C749.353 7.29 748.825 7.482 748.369 7.866C747.925 8.238 747.577 8.778 747.325 9.486C747.085 10.194 746.965 11.046 746.965 12.042C746.965 13.05 747.085 13.92 747.325 14.652C747.577 15.372 747.925 15.93 748.369 16.326C748.825 16.71 749.353 16.902 749.953 16.902ZM758.766 21.834L758.352 20.898C759.12 20.562 759.69 20.136 760.062 19.62C760.434 19.116 760.62 18.492 760.62 17.748L760.278 16.092L761.286 17.514C761.142 17.682 760.98 17.796 760.8 17.856C760.632 17.904 760.458 17.928 760.278 17.928C760.026 17.928 759.792 17.88 759.576 17.784C759.36 17.676 759.186 17.526 759.054 17.334C758.934 17.13 758.874 16.878 758.874 16.578C758.874 16.134 759.018 15.798 759.306 15.57C759.594 15.33 759.93 15.21 760.314 15.21C760.842 15.21 761.244 15.42 761.52 15.84C761.796 16.248 761.934 16.806 761.934 17.514C761.934 18.57 761.652 19.458 761.088 20.178C760.524 20.91 759.75 21.462 758.766 21.834ZM780.802 18.216C779.938 18.216 779.14 18.06 778.408 17.748C777.688 17.424 777.058 16.998 776.518 16.47L777.418 15.426C777.862 15.87 778.378 16.23 778.966 16.506C779.566 16.77 780.202 16.902 780.874 16.902C781.69 16.902 782.32 16.728 782.764 16.38C783.22 16.032 783.448 15.582 783.448 15.03C783.448 14.61 783.352 14.274 783.16 14.022C782.98 13.77 782.728 13.56 782.404 13.392C782.092 13.224 781.732 13.056 781.324 12.888L779.632 12.15C779.236 11.982 778.84 11.772 778.444 11.52C778.06 11.268 777.736 10.95 777.472 10.566C777.208 10.17 777.076 9.684 777.076 9.108C777.076 8.508 777.238 7.974 777.562 7.506C777.898 7.026 778.36 6.654 778.948 6.39C779.536 6.114 780.202 5.976 780.946 5.976C781.69 5.976 782.374 6.114 782.998 6.39C783.622 6.654 784.15 7.002 784.582 7.434L783.79 8.406C783.406 8.058 782.98 7.788 782.512 7.596C782.044 7.392 781.504 7.29 780.892 7.29C780.208 7.29 779.656 7.446 779.236 7.758C778.816 8.058 778.606 8.478 778.606 9.018C778.606 9.39 778.708 9.696 778.912 9.936C779.128 10.176 779.398 10.374 779.722 10.53C780.046 10.686 780.376 10.836 780.712 10.98L782.368 11.7C782.86 11.892 783.304 12.126 783.7 12.402C784.096 12.666 784.408 12.996 784.636 13.392C784.864 13.788 784.978 14.274 784.978 14.85C784.978 15.474 784.81 16.044 784.474 16.56C784.138 17.064 783.658 17.466 783.034 17.766C782.41 18.066 781.666 18.216 780.802 18.216ZM787.365 18V6.192H791.037C791.841 6.192 792.549 6.3 793.161 6.516C793.785 6.72 794.271 7.068 794.619 7.56C794.979 8.04 795.159 8.688 795.159 9.504C795.159 10.296 794.979 10.95 794.619 11.466C794.271 11.982 793.785 12.372 793.161 12.636C792.549 12.888 791.841 13.014 791.037 13.014H788.859V18H787.365ZM788.859 11.79H790.821C791.745 11.79 792.447 11.604 792.927 11.232C793.419 10.848 793.665 10.272 793.665 9.504C793.665 8.736 793.419 8.196 792.927 7.884C792.447 7.56 791.745 7.398 790.821 7.398H788.859V11.79ZM790.731 12.6L791.919 11.808L795.519 18H793.809L790.731 12.6ZM797.528 18V16.722H800.462V7.452H797.528V6.192H804.908V7.452H801.974V16.722H804.908V18H797.528ZM818.736 18V6.192H820.212V16.722H826.062V18H818.736ZM827.153 18L831.131 6.192H832.823L836.801 18H835.217L833.165 11.394C832.961 10.734 832.757 10.08 832.553 9.432C832.361 8.772 832.175 8.1 831.995 7.416H831.923C831.731 8.1 831.539 8.772 831.347 9.432C831.155 10.08 830.957 10.734 830.753 11.394L828.683 18H827.153ZM829.241 14.4V13.194H834.659V14.4H829.241ZM838.306 18V6.192H839.962L843.742 13.608L844.876 16.056H844.912C844.888 15.468 844.846 14.856 844.786 14.22C844.738 13.572 844.714 12.936 844.714 12.312V6.192H846.154V18H844.498L840.718 10.584L839.584 8.136H839.548C839.572 8.736 839.608 9.348 839.656 9.972C839.716 10.596 839.746 11.214 839.746 11.826V18H838.306ZM848.847 18V6.192H850.359V12.114H850.413L855.381 6.192H857.091L850.359 14.238V18H848.847ZM855.831 18L852.177 11.412L853.095 10.224L857.523 18H855.831ZM857.912 18L861.89 6.192H863.582L867.56 18H865.976L863.924 11.394C863.72 10.734 863.516 10.08 863.312 9.432C863.12 8.772 862.934 8.1 862.754 7.416H862.682C862.49 8.1 862.298 8.772 862.106 9.432C861.914 10.08 861.716 10.734 861.512 11.394L859.442 18H857.912ZM860 14.4V13.194H865.418V14.4H860Z" fill="white"/>
<path d="M866.051 113.2C866.051 90.7306 859.896 73.8419 847.86 62.209L847.283 61.6582C834.832 49.9767 817.052 44 793.651 44C770.251 44 752.471 49.9768 740.02 61.6582V61.6592C727.743 73.168 721.451 90.2292 721.451 113.2L721.456 114.272C721.649 136.694 727.929 153.471 740.012 164.934C752.463 176.486 770.245 182.4 793.651 182.4V184.4L792.543 184.396C769.715 184.214 751.954 178.401 739.262 166.958L738.651 166.4C726.051 154.457 719.653 137.086 719.456 114.29L719.451 113.2C719.451 90.2315 725.653 72.7534 738.056 60.7666L738.651 60.2002C751.585 48.0669 769.918 42 793.651 42L794.76 42.0049C817.956 42.1915 835.92 48.2565 848.651 60.2002C861.585 72.3335 868.051 90.0003 868.051 113.2L868.047 114.283C867.848 136.951 861.383 154.256 848.651 166.2L848.041 166.765C835.144 178.522 817.014 184.4 793.651 184.4V182.4C817.052 182.4 834.832 176.423 847.283 164.741C859.699 153.093 866.051 136.026 866.051 113.2ZM822.852 106.8C822.852 97.0666 820.318 89.3329 815.251 83.5996C810.472 78.0457 803.566 75.1824 794.532 75.0088L793.651 75C784.185 75 776.984 77.8663 772.051 83.5996C767.117 89.3329 764.651 97.0666 764.651 106.8V119.6L764.658 120.507C764.808 129.815 767.272 137.246 772.051 142.8C776.83 148.354 783.737 151.218 792.771 151.392L793.651 151.4C803.118 151.4 810.318 148.533 815.251 142.8C820.159 137.246 822.69 129.815 822.844 120.507L822.852 119.6V106.8ZM824.852 119.6L824.844 120.54C824.684 130.187 822.054 138.109 816.767 144.104C811.361 150.386 803.542 153.4 793.651 153.4C784.07 153.4 776.432 150.572 771.049 144.684L770.535 144.104C765.209 137.914 762.651 129.671 762.651 119.6V106.8C762.651 96.7285 765.209 88.486 770.535 82.2959C775.941 76.0135 783.761 73 793.651 73C803.531 73 811.344 76.007 816.749 82.2754C822.219 88.4652 824.852 96.7156 824.852 106.8V119.6Z" fill="white"/>
<path d="M699.717 44.4004V182H655.517V44.4004H699.717ZM657.517 180H697.717V46.4004H657.517V180Z" fill="white"/>
<path d="M632.715 142.2V182H590.315V142.2H632.715ZM592.315 180H630.715V144.2H592.315V180Z" fill="white"/>
<path d="M496.779 75.4004H571.579V46.4004H456.579V180H572.979V151H496.779V126H560.779V98.4004H496.779V75.4004ZM498.779 96.4004H562.779V128H498.779V149H574.979V182H454.579V44.4004H573.579V77.4004H498.779V96.4004Z" fill="white"/>
<path d="M390.378 112.2V44.4004H430.978V182H392.378L334.578 115.2V182H293.978V44.4004H332.578L390.378 112.2ZM295.978 180H332.578V109.832L393.292 180H428.978V46.4004H392.378V117.629L331.655 46.4004H295.978V180Z" fill="white"/>
<path d="M283.313 182H236.514L230.714 162.6H182.514L176.714 182H131.514L181.714 44.4004H233.113L283.313 182ZM134.372 180H175.225L181.024 160.6H232.203L238.003 180H280.455L231.714 46.4004H183.113L134.372 180ZM208.61 80.7998L224.186 133.8H189.031L204.822 80.7998H208.61ZM191.714 131.8H221.514L207.113 82.7998H206.313L191.714 131.8Z" fill="white"/>
<path d="M96.7998 128.016L148.948 46.4004H105.556L79.1553 92.2002H76.0439L49.6436 46.4004H3.68066L56.5996 128.008V180H96.7998V128.016ZM98.7998 182H54.5996V128.6L0 44.4004H50.7998L77.1992 90.2002H78L104.399 44.4004H152.6L98.7998 128.6V182Z" fill="white"/>
<path d="M691.245 220.04V228H682.766V220.04H691.245ZM683.766 227H690.245V221.04H683.766V227Z" fill="white"/>
<path d="M678.177 214.24C678.177 209.82 677.02 206.685 674.877 204.644C672.86 202.721 669.818 201.623 665.597 201.493L664.736 201.48H653.816V227H664.736V228H652.816V200.48H664.736L665.625 200.493C674.659 200.771 679.177 205.354 679.177 214.24L679.162 215.087C678.871 223.696 674.062 228 664.736 228V227C669.407 227 672.725 225.886 674.877 223.836C677.019 221.794 678.177 218.66 678.177 214.24ZM664.576 206.08V207.08H661.656V221.4H664.576C668.167 221.4 670.019 219.536 670.131 215.807L670.137 215.44V213.04C670.137 209.191 668.397 207.206 664.919 207.086L664.576 207.08V206.08C666.602 206.08 668.301 206.626 669.478 207.888C670.642 209.136 671.137 210.916 671.137 213.04V215.44L671.131 215.834C671.072 217.784 670.569 219.421 669.478 220.592C668.301 221.853 666.602 222.4 664.576 222.4H660.656V206.08H664.576Z" fill="white"/>
<path d="M638.776 214.04V200.48H646.896V228H639.176L627.616 214.64V228H619.496V200.48H627.216L638.776 214.04ZM620.496 227H626.616V211.956L639.634 227H645.896V201.48H639.776V216.755L626.755 201.48H620.496V227Z" fill="white"/>
<path d="M594.016 201.48H587.176V216.92C587.176 220.454 588.281 223.009 590.376 224.751C592.536 226.525 595.664 227.48 599.896 227.48V228.48L599.087 228.469C595.103 228.353 591.985 227.369 589.735 225.52C587.362 223.546 586.176 220.68 586.176 216.92V200.48H595.016V216.8C595.016 218.346 595.429 219.586 596.256 220.52C597.082 221.426 598.282 221.88 599.855 221.88C601.429 221.88 602.629 221.414 603.456 220.48C604.309 219.547 604.735 218.32 604.735 216.8V200.48H613.576V216.92L613.562 217.614C613.423 221.035 612.241 223.669 610.016 225.52C607.642 227.493 604.269 228.48 599.896 228.48V227.48C604.131 227.48 607.245 226.523 609.377 224.751C611.472 223.009 612.576 220.454 612.576 216.92V201.48H605.735V216.8C605.735 218.516 605.249 220.001 604.194 221.154L604.193 221.153C603.13 222.347 601.629 222.88 599.855 222.88C598.085 222.88 596.583 222.363 595.517 221.193L595.512 221.188L595.507 221.183C594.482 220.025 594.016 218.529 594.016 216.8V201.48Z" fill="white"/>
<path d="M580.415 214.24C580.415 209.926 579.255 206.757 577.066 204.577L576.852 204.369C574.506 202.168 571.116 201 566.535 201C561.955 201 558.566 202.169 556.22 204.369C553.922 206.524 552.695 209.755 552.695 214.24L552.71 215.066C552.853 219.122 554.062 222.101 556.216 224.146C558.561 226.323 561.952 227.48 566.535 227.48V228.48L565.658 228.466C561.335 228.325 557.96 227.13 555.535 224.88C553.055 222.529 551.777 219.127 551.699 214.674L551.695 214.24C551.695 209.574 552.975 206.04 555.535 203.64C558.122 201.213 561.789 200 566.535 200L567.413 200.015C571.736 200.157 575.11 201.365 577.535 203.64C580.122 206.066 581.415 209.6 581.415 214.24L581.412 214.672C581.334 219.1 580.041 222.489 577.535 224.84C574.948 227.266 571.282 228.48 566.535 228.48V227.48C571.116 227.48 574.506 226.311 576.852 224.11C579.179 221.926 580.415 218.693 580.415 214.24ZM572.376 212.96C572.376 211.135 571.93 209.662 571.04 208.54L570.855 208.32C569.869 207.174 568.428 206.6 566.535 206.6C564.642 206.6 563.202 207.174 562.216 208.32L562.036 208.54C561.169 209.662 560.735 211.135 560.735 212.96V215.52C560.735 217.466 561.229 219.013 562.216 220.16C563.202 221.307 564.642 221.88 566.535 221.88C568.428 221.88 569.869 221.307 570.855 220.16C571.806 219.085 572.31 217.658 572.369 215.88L572.376 215.52V212.96ZM573.376 215.52L573.369 215.914C573.304 217.861 572.746 219.524 571.612 220.812L571.613 220.812C570.39 222.234 568.64 222.88 566.535 222.88C564.562 222.88 562.901 222.311 561.693 221.069L561.457 220.812C560.274 219.437 559.735 217.635 559.735 215.52V212.96C559.735 210.844 560.274 209.043 561.457 207.668C562.68 206.247 564.43 205.6 566.535 205.6C568.64 205.6 570.39 206.247 571.613 207.668H571.612C572.822 209.042 573.376 210.843 573.376 212.96V215.52Z" fill="white"/>
<path d="M547.229 209.52C547.228 208.061 546.931 206.771 546.352 205.628L546.231 205.401L546.228 205.395C545.567 204.167 544.656 203.223 543.486 202.545L543.48 202.541L543.474 202.537C542.384 201.883 541.139 201.527 539.716 201.484L539.429 201.48H524.988V227H531.828V218.12H539.429V219.12H532.828V228H523.988V200.48H539.429L539.746 200.484C541.324 200.531 542.738 200.93 543.988 201.68C545.322 202.453 546.362 203.533 547.108 204.92C547.855 206.28 548.228 207.813 548.229 209.52V210.04L548.224 210.358C548.18 211.939 547.808 213.38 547.108 214.68L546.965 214.937C546.23 216.202 545.238 217.21 543.988 217.96C542.738 218.685 541.324 219.07 539.746 219.115L539.429 219.12V218.12C540.978 218.12 542.321 217.77 543.486 217.095C544.657 216.389 545.567 215.432 546.228 214.206C546.889 212.977 547.229 211.595 547.229 210.04V209.52ZM536.469 206V207H532.828V212.68H536.469C537.402 212.68 538.095 212.44 538.548 211.96C538.968 211.54 539.204 210.987 539.257 210.302L539.269 210V209.68C539.268 208.827 539.028 208.173 538.548 207.72C538.151 207.3 537.571 207.064 536.807 207.012L536.469 207V206C537.541 206 538.528 206.273 539.234 206.993H539.235C539.969 207.687 540.268 208.636 540.269 209.68V210L540.254 210.382C540.186 211.259 539.874 212.049 539.256 212.667L539.255 212.666C538.547 213.402 537.551 213.68 536.469 213.68H531.828V206H536.469Z" fill="white"/>
<path d="M502.295 216.36H502.455L506.575 200.48H518.615V228H509.854V218.08C509.854 216.854 509.895 215.6 509.975 214.32C510.081 213.014 510.188 211.92 510.295 211.04C510.402 210.16 510.468 209.601 510.495 209.36H510.335L505.255 228H498.335L493.215 209.4H493.055C493.081 209.641 493.148 210.201 493.255 211.08C493.388 211.933 493.509 213.014 493.615 214.32C493.722 215.6 493.774 216.854 493.774 218.08V228H485.655V200.48H498.135L502.295 216.36ZM510.854 227H517.615V201.48H507.349L503.229 217.36H501.523L497.363 201.48H486.655V227H492.774V218.08C492.774 217.182 492.745 216.268 492.687 215.338L492.618 214.403V214.401C492.513 213.108 492.395 212.055 492.267 211.234L492.265 211.218L492.262 211.2L492.061 209.511L491.938 208.4H493.977L499.097 227H504.491L509.571 208.36H511.612L511.488 209.471C511.461 209.717 511.395 210.282 511.288 211.16C511.184 212.023 511.078 213.102 510.972 214.401C510.894 215.655 510.854 216.881 510.854 218.08V227Z" fill="white"/>
<path d="M480.454 214.24C480.454 209.926 479.295 206.757 477.105 204.577L476.891 204.369C474.545 202.168 471.155 201 466.574 201C461.994 201 458.605 202.169 456.259 204.369C453.961 206.524 452.734 209.755 452.734 214.24L452.749 215.066C452.892 219.122 454.101 222.101 456.255 224.146C458.6 226.323 461.991 227.48 466.574 227.48V228.48L465.697 228.466C461.374 228.325 457.999 227.13 455.574 224.88C453.094 222.529 451.816 219.127 451.738 214.674L451.734 214.24C451.734 209.574 453.014 206.04 455.574 203.64C458.161 201.213 461.828 200 466.574 200L467.452 200.015C471.775 200.157 475.149 201.365 477.574 203.64C480.161 206.066 481.454 209.6 481.454 214.24L481.451 214.672C481.373 219.1 480.08 222.489 477.574 224.84C474.988 227.266 471.321 228.48 466.574 228.48V227.48C471.155 227.48 474.545 226.311 476.891 224.11C479.218 221.926 480.454 218.693 480.454 214.24ZM472.415 212.96C472.415 211.135 471.969 209.662 471.079 208.54L470.895 208.32C469.908 207.174 468.468 206.6 466.574 206.6C464.681 206.6 463.241 207.174 462.255 208.32L462.075 208.54C461.208 209.662 460.774 211.135 460.774 212.96V215.52C460.774 217.466 461.268 219.013 462.255 220.16C463.241 221.307 464.681 221.88 466.574 221.88C468.467 221.88 469.908 221.307 470.895 220.16C471.845 219.085 472.349 217.658 472.408 215.88L472.415 215.52V212.96ZM473.415 215.52L473.408 215.914C473.343 217.861 472.785 219.524 471.651 220.812L471.652 220.812C470.429 222.234 468.679 222.88 466.574 222.88C464.601 222.88 462.94 222.311 461.732 221.069L461.496 220.812C460.313 219.437 459.774 217.635 459.774 215.52V212.96C459.774 210.844 460.313 209.043 461.496 207.668C462.719 206.247 464.469 205.6 466.574 205.6C468.68 205.6 470.429 206.247 471.652 207.668H471.651C472.861 209.042 473.415 210.843 473.415 212.96V215.52Z" fill="white"/>
<path d="M428.642 212.96C428.642 210.836 429.079 209.039 430.077 207.687L430.082 207.68L430.086 207.674C431.178 206.24 432.835 205.6 434.842 205.6C436.6 205.6 438.09 206.139 439.15 207.337H439.149C440.001 208.274 440.476 209.448 440.628 210.8H447.088C446.91 207.957 445.96 205.783 444.295 204.187L443.912 203.841L443.907 203.836C441.764 201.982 438.795 201 434.882 201C430.351 201 427.084 202.156 424.905 204.311C422.757 206.461 421.602 209.711 421.602 214.24L421.615 215.075C421.75 219.171 422.892 222.153 424.905 224.169C427.084 226.323 430.351 227.48 434.882 227.48V228.48L434.015 228.466C429.89 228.33 426.696 227.208 424.433 225.102L424.202 224.88C421.952 222.63 420.757 219.372 420.616 215.106L420.602 214.24C420.602 209.547 421.802 206 424.202 203.6C426.629 201.2 430.189 200 434.882 200L435.637 200.012C439.362 200.132 442.337 201.155 444.562 203.08C446.935 205.107 448.122 208.013 448.122 211.8H439.682C439.682 210.2 439.255 208.933 438.401 208C437.626 207.125 436.535 206.66 435.128 206.605L434.842 206.6C433.055 206.6 431.735 207.16 430.882 208.28C430.055 209.4 429.642 210.96 429.642 212.96V215.52C429.642 217.493 430.055 219.054 430.882 220.2C431.735 221.32 433.028 221.88 434.762 221.88C436.468 221.88 437.762 221.44 438.642 220.56C439.467 219.735 439.905 218.594 439.957 217.136L439.962 216.84H448.122C448.122 220.6 446.962 223.48 444.642 225.48C442.348 227.48 439.095 228.48 434.882 228.48V227.48C438.946 227.48 441.933 226.516 443.984 224.727L443.989 224.723C445.841 223.126 446.901 220.871 447.089 217.84H440.905C440.748 219.197 440.251 220.365 439.349 221.268C438.22 222.396 436.633 222.88 434.762 222.88C432.796 222.88 431.172 222.231 430.086 220.806L430.078 220.796L430.07 220.785C429.081 219.413 428.642 217.622 428.642 215.52V212.96Z" fill="white"/>
<path d="M403.081 220.04V228H394.602V220.04H403.081ZM395.602 227H402.081V221.04H395.602V227Z" fill="white"/>
<path d="M390.013 214.24C390.013 209.82 388.856 206.685 386.713 204.644C384.696 202.721 381.654 201.623 377.433 201.493L376.572 201.48H365.652V227H376.572V228H364.652V200.48H376.572L377.461 200.493C386.495 200.771 391.013 205.354 391.013 214.24L390.998 215.087C390.706 223.696 385.898 228 376.572 228V227C381.243 227 384.561 225.886 386.713 223.836C388.855 221.794 390.013 218.66 390.013 214.24ZM376.412 206.08V207.08H373.492V221.4H376.412C380.003 221.4 381.855 219.536 381.967 215.807L381.973 215.44V213.04C381.973 209.191 380.233 207.206 376.755 207.086L376.412 207.08V206.08C378.438 206.08 380.137 206.626 381.313 207.888C382.478 209.136 382.973 210.916 382.973 213.04V215.44L382.967 215.834C382.908 217.784 382.405 219.421 381.313 220.592C380.137 221.853 378.438 222.4 376.412 222.4H372.492V206.08H376.412Z" fill="white"/>
<path d="M346.812 200.48V220.96H360.933V228H337.973V200.48H346.812ZM338.973 227H359.933V221.96H345.812V201.48H338.973V227Z" fill="white"/>
<path d="M331.666 200.48V228H322.826V200.48H331.666ZM323.826 227H330.666V201.48H323.826V227Z" fill="white"/>
<path d="M296.945 201.48H290.105V216.92C290.105 220.454 291.21 223.009 293.306 224.751C295.466 226.525 298.594 227.48 302.825 227.48V228.48L302.017 228.469C298.032 228.353 294.915 227.369 292.665 225.52C290.292 223.546 289.105 220.68 289.105 216.92V200.48H297.945V216.8C297.945 218.346 298.359 219.586 299.186 220.52C300.012 221.426 301.212 221.88 302.785 221.88C304.358 221.88 305.559 221.414 306.386 220.48C307.239 219.547 307.665 218.32 307.665 216.8V200.48H316.506V216.92L316.491 217.614C316.352 221.035 315.17 223.669 312.945 225.52C310.572 227.493 307.199 228.48 302.825 228.48V227.48C307.061 227.48 310.175 226.523 312.307 224.751C314.402 223.009 315.506 220.454 315.506 216.92V201.48H308.665V216.8C308.665 218.516 308.178 220.001 307.124 221.154L307.123 221.153C306.06 222.347 304.559 222.88 302.785 222.88C301.015 222.88 299.513 222.363 298.446 221.193L298.441 221.188L298.437 221.183C297.412 220.025 296.945 218.529 296.945 216.8V201.48Z" fill="white"/>
<path d="M284.587 220.68C284.587 218.937 284.186 217.65 283.481 216.726C282.782 215.807 281.7 215.135 280.124 214.774L279.348 214.597V212.887L280.071 212.679C281.436 212.287 282.376 211.643 282.985 210.796C283.598 209.943 283.947 208.784 283.947 207.24C283.947 206.153 283.656 205.186 283.075 204.314L283.07 204.308L283.065 204.3C282.575 203.534 281.921 202.919 281.086 202.453L280.717 202.263L280.704 202.257L280.692 202.25C279.822 201.805 278.864 201.549 277.807 201.492L277.348 201.48H260.027V227H277.587V228H259.027V200.48H277.348L277.861 200.494C279.049 200.558 280.144 200.847 281.147 201.36C282.321 201.92 283.241 202.72 283.907 203.76C284.601 204.8 284.947 205.96 284.947 207.24L284.943 207.554C284.851 210.759 283.318 212.787 280.348 213.64V213.8C283.841 214.6 285.587 216.893 285.587 220.68C285.587 222.119 285.228 223.4 284.508 224.52C283.814 225.613 282.854 226.467 281.627 227.08L281.396 227.191C280.232 227.73 278.962 228 277.587 228V227C278.909 227 280.102 226.725 281.18 226.186C282.254 225.648 283.073 224.915 283.663 223.984L283.666 223.979C284.274 223.034 284.587 221.944 284.587 220.68ZM274.587 215.88V216.88H267.867V221.6H274.587C275.174 221.6 275.654 221.4 276.027 221C276.377 220.627 276.574 220.182 276.618 219.666L276.627 219.44V219.04C276.627 218.427 276.427 217.92 276.027 217.52C275.654 217.093 275.173 216.88 274.587 216.88V215.88C275.439 215.88 276.19 216.201 276.758 216.837C277.346 217.438 277.627 218.197 277.627 219.04V219.44L277.614 219.756C277.551 220.483 277.267 221.138 276.758 221.682C276.181 222.3 275.428 222.6 274.587 222.6H266.867V215.88H274.587ZM273.947 205.52V206.52H267.867V211.2H273.947C274.534 211.2 275.014 211 275.388 210.6C275.737 210.226 275.934 209.782 275.978 209.266L275.987 209.04V208.64C275.987 208.053 275.787 207.56 275.388 207.16C274.988 206.733 274.507 206.52 273.947 206.52V205.52C274.786 205.52 275.518 205.85 276.094 206.453H276.095C276.102 206.461 276.11 206.468 276.117 206.476H276.116C276.697 207.067 276.987 207.809 276.987 208.64V209.04L276.974 209.356C276.911 210.084 276.626 210.739 276.116 211.283C275.539 211.901 274.788 212.2 273.947 212.2H266.867V205.52H273.947Z" fill="white"/>
<path d="M240.347 220.04V228H231.867V220.04H240.347ZM232.867 227H239.347V221.04H232.867V227Z" fill="white"/>
<path d="M211.359 206.08H226.319V201.48H204.52V227H226.6V222.4H211.359V216.2H224.159V211.88H211.359V206.08ZM212.359 210.88H225.159V217.2H212.359V221.4H227.6V228H203.52V200.48H227.319V207.08H212.359V210.88Z" fill="white"/>
<path d="M189.492 206.52H198.492V201.48H173.612V206.52H182.652V227H189.492V206.52ZM190.492 228H181.652V207.52H172.612V200.48H199.492V207.52H190.492V228Z" fill="white"/>
<path d="M174.093 228H164.733L163.573 224.12H153.933L152.773 228H143.733L153.773 200.48H164.053L174.093 228ZM145.163 227H152.028L153.188 223.12H164.317L165.478 227H172.663L163.354 201.48H154.473L145.163 227ZM159.602 207.16L163.069 218.96H154.432L157.947 207.16H159.602ZM155.773 217.96H161.733L158.853 208.16H158.693L155.773 217.96Z" fill="white"/>
<path d="M125.266 206.08H140.226V201.48H118.426V227H140.506V222.4H125.266V216.2H138.065V211.88H125.266V206.08ZM126.266 210.88H139.065V217.2H126.266V221.4H141.506V228H117.426V200.48H141.226V207.08H126.266V210.88Z" fill="white"/>
<path d="M111.409 208.667C111.374 207.496 111.095 206.419 110.576 205.423L110.462 205.21L110.455 205.199L110.449 205.188C109.894 204.143 109.068 203.297 107.937 202.65L107.706 202.524L107.696 202.519L107.686 202.514C106.555 201.883 105.163 201.526 103.475 201.484L103.133 201.48H87.293V227H94.1328V216.96H99.0391L103.919 227H111.55L105.673 215.938L106.747 215.542C108.309 214.965 109.446 214.087 110.221 212.926C111.015 211.735 111.413 210.408 111.413 208.92L111.409 208.667ZM100.933 205.76V206.76H95.1328V211.84H100.933C101.539 211.84 102.065 211.656 102.508 211.289L102.693 211.12C103.113 210.677 103.349 210.152 103.401 209.545L103.413 209.28C103.413 208.65 103.229 208.112 102.861 207.666L102.693 207.48C102.213 207 101.626 206.76 100.933 206.76V205.76C101.825 205.76 102.623 206.059 103.272 206.65L103.4 206.772C104.08 207.452 104.413 208.313 104.413 209.28L104.409 209.46C104.37 210.354 104.04 211.152 103.419 211.808L103.41 211.817L103.4 211.827C102.728 212.499 101.885 212.84 100.933 212.84H94.1328V205.76H100.933ZM112.407 209.233C112.354 210.79 111.903 212.206 111.053 213.48L110.878 213.73C109.979 214.963 108.718 215.88 107.093 216.48L113.213 228H103.293L98.4131 217.96H95.1328V228H86.293V200.48H103.133L103.5 200.484C105.315 200.53 106.873 200.915 108.173 201.64C109.586 202.386 110.64 203.413 111.333 204.72C112.053 206 112.413 207.4 112.413 208.92L112.407 209.233Z" fill="white"/>
<path d="M62.04 212.96C62.04 210.836 62.4774 209.039 63.4756 207.687L63.4805 207.68L63.4844 207.674C64.5766 206.24 66.2338 205.6 68.2402 205.6C69.9988 205.6 71.4881 206.139 72.5488 207.337H72.5479C73.3998 208.274 73.8749 209.448 74.0264 210.8H80.4863C80.3084 207.957 79.3582 205.783 77.6934 204.187L77.3105 203.841L77.3057 203.836C75.1629 201.982 72.1933 201 68.2803 201C63.7498 201 60.482 202.156 58.3037 204.311C56.1558 206.461 55 209.711 55 214.24L55.0137 215.075C55.1486 219.171 56.2904 222.153 58.3037 224.169C60.482 226.323 63.7496 227.48 68.2803 227.48V228.48L67.4131 228.466C63.2884 228.33 60.0943 227.208 57.8311 225.102L57.6006 224.88C55.3506 222.63 54.1553 219.372 54.0146 215.106L54 214.24C54 209.547 55.2006 206 57.6006 203.6C60.0272 201.2 63.5872 200 68.2803 200L69.0352 200.012C72.7601 200.132 75.735 201.155 77.96 203.08C80.3333 205.107 81.5205 208.013 81.5205 211.8H73.0801C73.08 210.2 72.6531 208.933 71.7998 208C71.0249 207.125 69.9339 206.66 68.5264 206.605L68.2402 206.6C66.4536 206.6 65.1336 207.16 64.2803 208.28C63.4537 209.4 63.04 210.96 63.04 212.96V215.52C63.04 217.493 63.4536 219.054 64.2803 220.2C65.1336 221.32 66.4269 221.88 68.1602 221.88C69.8668 221.88 71.16 221.44 72.04 220.56C72.865 219.735 73.3039 218.594 73.3555 217.136L73.3604 216.84H81.5205C81.5205 220.6 80.36 223.48 78.04 225.48C75.7467 227.48 72.4934 228.48 68.2803 228.48V227.48C72.3446 227.48 75.3312 226.516 77.3828 224.727L77.3877 224.723C79.2397 223.126 80.2992 220.871 80.4873 217.84H74.3037C74.146 219.197 73.6493 220.365 72.7471 221.268C71.6187 222.396 70.0311 222.88 68.1602 222.88C66.1949 222.88 64.5706 222.231 63.4844 220.806L63.4766 220.796L63.4688 220.785C62.4793 219.413 62.04 217.622 62.04 215.52V212.96Z" fill="white"/>
</svg>
