<svg width="631" height="44" viewBox="0 0 631 44" fill="none" xmlns="http://www.w3.org/2000/svg">
<g opacity="0.8">
<path d="M604.931 11.8595C604.931 10.462 605.817 9.46359 606.973 8.81049L606.983 8.8043L606.992 8.79935C608.231 8.12845 609.853 7.85524 611.732 7.85519C613.591 7.85519 615.223 8.23952 616.425 9.20151L616.659 9.40198C617.558 10.219 618.115 11.2176 618.321 12.357H628.443C628.248 9.02563 626.884 6.52203 624.33 4.72698L623.773 4.35946L623.765 4.35327C620.575 2.32717 616.43 1.26713 611.245 1.26713C605.978 1.26716 601.724 2.32861 598.406 4.36441L598.402 4.36565C595.299 6.25614 593.719 9.18265 593.719 13.3803C593.719 16.093 594.392 18.143 595.628 19.6528L595.882 19.9473C597.412 21.6267 599.188 22.8251 601.217 23.5631H601.216C603.378 24.3088 606.137 25.0441 609.504 25.7657H609.503C612.273 26.3282 614.37 26.8894 615.716 27.4647C616.473 27.7575 617.152 28.1709 617.645 28.7603C618.158 29.3722 618.413 30.1045 618.413 30.8973L618.403 31.1894C618.358 31.8689 618.152 32.5182 617.73 33.0765C617.254 33.7052 616.585 34.1074 615.841 34.3485L615.843 34.3498C614.573 34.7729 613.026 34.9623 611.245 34.9623C609.008 34.9623 607.114 34.6567 605.731 33.8919L605.462 33.7335L605.448 33.7249L605.433 33.715C604.124 32.8417 603.491 31.3926 603.296 29.671H593.085C593.34 34.2215 594.998 37.2048 597.853 38.9369C601.227 40.9593 606.054 42.0379 612.462 42.0379V43.305L611.255 43.2914C605.502 43.1674 600.931 42.1449 597.542 40.2226L597.196 40.0209C593.587 37.8314 591.783 33.9587 591.783 28.4039H604.494C604.494 30.5118 605.042 31.9308 606.136 32.6607C607.094 33.2639 608.518 33.6037 610.408 33.6791L611.245 33.6952C612.948 33.6952 614.348 33.5119 615.443 33.147C616.507 32.8048 617.073 32.1245 617.139 31.1052L617.146 30.8973C617.146 29.8836 616.517 29.133 615.26 28.6465C614.043 28.1194 612.036 27.572 609.238 27.0044C605.832 26.2745 603.014 25.5239 600.784 24.7535C598.694 23.9932 596.852 22.7878 595.26 21.1365L594.945 20.8012C593.282 18.9765 592.451 16.5025 592.451 13.3803C592.451 8.94185 594.107 5.64509 597.417 3.48955L597.743 3.28413C601.311 1.09457 605.812 2.93006e-05 611.245 0L612.238 0.0123743C617.144 0.140646 621.213 1.23138 624.444 3.28413C627.89 5.43318 629.654 8.63646 629.735 12.894V13.6241H617.146V13.3803C617.146 12.24 616.754 11.2774 615.97 10.4934L615.808 10.3387C614.916 9.52775 613.556 9.12232 611.732 9.12232C609.948 9.12237 608.569 9.38601 607.596 9.91304C606.664 10.4401 606.198 11.0892 606.198 11.8595L606.205 12.0612C606.281 13.0544 606.927 13.798 608.143 14.2923C609.441 14.8194 611.53 15.3667 614.408 15.9344C617.774 16.6237 620.531 17.3542 622.681 18.1246C624.87 18.8545 626.776 20.0709 628.397 21.7738C630.019 23.4767 630.85 25.7878 630.891 28.7071C630.891 33.6539 629.209 37.3242 625.843 39.7165C622.518 42.1088 618.057 43.305 612.462 43.305V42.0379C617.887 42.0379 622.06 40.8778 625.103 38.6882L625.108 38.6832C628.067 36.5802 629.62 33.3449 629.624 28.7257C629.589 26.2126 628.923 24.3174 627.727 22.9209L627.481 22.6474C626.091 21.1887 624.484 20.1292 622.65 19.4561L622.28 19.3262L622.266 19.3224L622.252 19.3175C620.181 18.5748 617.487 17.8593 614.155 17.1767V17.1755C611.267 16.6059 609.082 16.0414 607.667 15.4666C606.885 15.1488 606.193 14.7042 605.694 14.0807C605.18 13.4378 604.931 12.6778 604.931 11.8595Z" fill="black"/>
<path d="M555.177 32.6075L555.642 32.2264L564.104 25.3166L573.178 41.3079H586.034L571.912 18.611L571.416 17.8153L585.223 1.99601H571.939L555.177 22.1104V1.99601H544.269V41.3079H555.177V32.6075ZM556.444 42.575H543.002V0.728882H556.444V18.611L571.345 0.728882H588.011L572.987 17.9415L588.314 42.575H572.44L563.742 27.2482L556.444 33.2089V42.575Z" fill="black"/>
<path d="M534.108 13.1712C534.054 11.3526 533.621 9.67677 532.813 8.12746L532.635 7.79831L532.62 7.77108C531.694 6.02686 530.285 4.64005 528.342 3.61333L528.33 3.60714L528.317 3.59971C526.438 2.55168 524.106 1.99601 521.27 1.99601H496.931V41.3079H507.839V26.0417H514.886L522.307 41.3079H534.49L525.492 24.3724L526.853 23.87C529.272 22.9771 531.048 21.6102 532.259 19.7939C533.494 17.9402 534.115 15.874 534.115 13.5622L534.108 13.1712ZM517.925 9.01099V10.2781H509.106V18.0034H517.925C518.98 18.0033 519.872 17.6381 520.602 16.9083C521.241 16.234 521.599 15.4352 521.679 14.5126L521.696 14.1104C521.696 13.1525 521.417 12.3339 520.858 11.6554L520.602 11.3732C519.963 10.7345 519.2 10.3752 518.313 10.2954L517.925 10.2781V9.01099C519.221 9.01102 520.372 9.44442 521.312 10.3004L521.498 10.4773C522.481 11.4603 522.963 12.7023 522.963 14.1104L522.958 14.3728C522.902 15.6732 522.422 16.829 521.521 17.7794L521.509 17.7918L521.498 17.8042C520.525 18.7772 519.308 19.2705 517.925 19.2705H507.839V9.01099H517.925ZM535.373 14.0387C535.292 16.4051 534.605 18.558 533.313 20.4968L533.047 20.8779C531.681 22.7523 529.762 24.1457 527.291 25.058L536.598 42.575H521.514L514.093 27.3088H509.106V42.575H495.664V0.728882H521.27C524.271 0.728882 526.825 1.31767 528.934 2.49345C531.083 3.6288 532.684 5.19026 533.738 7.17712C534.833 9.12319 535.382 11.2513 535.382 13.5622L535.373 14.0387Z" fill="black"/>
<path d="M487.159 21.6525C487.159 14.8339 485.264 9.84061 481.659 6.45814C478.031 3.05479 472.806 1.26713 465.8 1.26713C459.012 1.26717 453.898 2.9448 450.286 6.14383L449.941 6.45814C446.38 9.79626 444.502 14.7861 444.502 21.6525L444.507 22.2898C444.621 28.8227 446.488 33.6268 449.936 36.9013C453.564 40.2672 458.79 42.0379 465.8 42.0379V43.305L465.128 43.3001C458.236 43.1895 452.884 41.3659 449.074 37.8307C445.303 34.256 443.358 29.0831 443.24 22.3121L443.235 21.6525C443.235 14.5566 445.181 9.1831 449.074 5.53378C453.007 1.84395 458.582 4.90131e-05 465.8 0L466.472 0.00494971C473.364 0.11662 478.716 1.95936 482.526 5.53378C486.459 9.22365 488.426 14.5972 488.426 21.6525L488.42 22.3084C488.301 29.0415 486.336 34.1954 482.526 37.77L482.152 38.1103C478.243 41.5732 472.792 43.305 465.8 43.305V42.0379C472.807 42.0379 478.031 40.2492 481.659 36.8457C485.264 33.4632 487.159 28.471 487.159 21.6525ZM474.68 19.706C474.68 16.931 474.003 14.6902 472.649 12.9843L472.369 12.6502C470.963 11.0157 468.95 10.1476 466.332 10.0454L465.8 10.0355C462.921 10.0356 460.732 10.9069 459.232 12.6502L458.959 12.9843C457.641 14.6902 456.981 16.9308 456.981 19.706V23.599L456.989 24.1459C457.077 26.8498 457.825 29.0189 459.232 30.6536C460.638 32.2883 462.651 33.1563 465.269 33.2584L465.8 33.2695C468.679 33.2695 470.869 32.3971 472.369 30.6536C473.814 29.0189 474.581 26.8497 474.671 24.1459L474.68 23.599V19.706ZM475.947 23.599L475.938 24.1892C475.84 27.1067 475.005 29.5749 473.328 31.4789L473.33 31.4802C471.53 33.5716 468.947 34.5366 465.8 34.5366C462.849 34.5366 460.396 33.688 458.618 31.8588L458.271 31.4802C456.522 29.4473 455.714 26.7731 455.714 23.599V19.706C455.714 16.5317 456.522 13.8566 458.271 11.8236C460.071 9.73258 462.653 8.76847 465.8 8.76842C468.947 8.76842 471.53 9.73229 473.33 11.8236H473.328C475.118 13.855 475.947 16.5298 475.947 19.706V23.599Z" fill="black"/>
<path d="M399.784 24.4504H400.027L404.771 0.728882H418.03L423.079 24.4504H423.323L427.823 0.728882H441.203L431.412 42.575H416.632L411.218 17.0902H410.976L405.562 42.575H390.782L380.99 0.728882H394.979L399.784 24.4504ZM391.787 41.3079H404.536L409.949 15.823H412.245L417.658 41.3079H430.407L439.606 1.99601H428.873L424.372 25.7175H422.053L417.004 1.99601H405.809L401.066 25.7175H398.747L393.942 1.99601H382.588L391.787 41.3079Z" fill="black"/>
<path d="M333.213 9.49853H355.961V1.99601H322.305V41.3079H356.386V33.8066H333.213V24.886H352.675V17.8103H333.213V9.49853ZM334.48 16.5432H353.943V26.1531H334.48V32.5394H357.654V42.575H321.038V0.728882H357.228V10.7657H334.48V16.5432Z" fill="black"/>
<path d="M299.69 21.3481V0.728882H312.036V42.575H300.298L282.72 22.2601V42.575H270.373V0.728882H282.113L299.69 21.3481ZM271.64 41.3079H281.453V18.8597L300.877 41.3079H310.769V1.99601H300.957V24.7882L281.526 1.99601H271.64V41.3079Z" fill="black"/>
<path d="M265.305 42.575H251.072L249.309 36.6749H234.65L232.887 42.575H219.142L234.408 0.728882H250.039L265.305 42.575ZM220.953 41.3079H231.943L233.707 35.4078H250.253L252.016 41.3079H263.493L249.153 1.99601H235.294L220.953 41.3079ZM243.08 11.1406L248.204 28.576H235.749L240.944 11.1406H243.08ZM237.448 27.3088H246.511L242.132 12.4077H241.888L237.448 27.3088Z" fill="black"/>
<path d="M206.101 25.965L221.417 1.99601H209.805L202.141 15.2909L201.775 15.9245H200.067L192.039 1.99601H179.654L195.194 25.96V41.3079H206.101V25.965ZM207.368 42.575H193.927V26.335L177.322 0.728882H192.772L200.8 14.6574H201.043L209.071 0.728882H223.73L207.368 26.335V42.575Z" fill="black"/>
<path d="M114.919 24.4504H115.162L119.906 0.728882H133.165L138.214 24.4504H138.457L142.958 0.728882H156.338L146.546 42.575H131.767L126.353 17.0902H126.11L120.697 42.575H105.917L96.125 0.728882H110.114L114.919 24.4504ZM106.922 41.3079H119.671L125.083 15.823H127.38L132.792 41.3079H145.542L154.741 1.99601H144.007L139.507 25.7175H137.188L132.139 1.99601H120.944L116.201 25.7175H113.882L109.077 1.99601H97.7225L106.922 41.3079Z" fill="black"/>
<path d="M92.8251 21.6525C92.8251 14.8339 90.9302 9.84061 87.3247 6.45814C83.6967 3.05479 78.4724 1.26713 71.4659 1.26713C64.6784 1.26717 59.5636 2.9448 55.9522 6.14383L55.607 6.45814C52.0463 9.79626 50.1685 14.7861 50.1685 21.6525L50.1734 22.2898C50.2867 28.8227 52.1537 33.6268 55.602 36.9013C59.2297 40.2672 64.4558 42.0379 71.4659 42.0379V43.305L70.7939 43.3001C63.9015 43.1895 58.5497 41.3659 54.7396 37.8307C50.9688 34.256 49.0241 29.0831 48.9063 22.3121L48.9014 21.6525C48.9014 14.5566 50.847 9.1831 54.7396 5.53378C58.6727 1.84395 64.2485 4.90131e-05 71.4659 0L72.1378 0.00494971C79.0303 0.11662 84.3819 1.95936 88.1922 5.53378C92.1253 9.22365 94.0922 14.5972 94.0922 21.6525L94.0861 22.3084C93.967 29.0415 92.0025 34.1954 88.1922 37.77L87.8185 38.1103C83.9088 41.5732 78.4579 43.305 71.4659 43.305V42.0379C78.4726 42.0379 83.6967 40.2492 87.3247 36.8457C90.9302 33.4632 92.825 28.471 92.8251 21.6525ZM80.3457 19.706C80.3457 16.7461 79.5762 14.3938 78.0354 12.6502C76.6289 11.0157 74.6161 10.1476 71.998 10.0454L71.4659 10.0355C68.5872 10.0356 66.3978 10.9069 64.8976 12.6502L64.6254 12.9843C63.3066 14.6902 62.6467 16.9308 62.6467 19.706V23.599L62.6554 24.1459C62.7432 26.8498 63.491 29.0189 64.8976 30.6536C66.3042 32.2883 68.3165 33.1563 70.935 33.2584L71.4659 33.2695C74.3448 33.2695 76.5351 32.3971 78.0354 30.6536C79.4798 29.0189 80.2468 26.8497 80.337 24.1459L80.3457 23.599V19.706ZM81.6128 23.599L81.6041 24.1892C81.5063 27.1067 80.671 29.5749 78.9944 31.4789L78.9956 31.4802C77.196 33.5716 74.6134 34.5366 71.4659 34.5366C68.5152 34.5366 66.0618 33.688 64.2838 31.8588L63.9374 31.4802C62.1881 29.4473 61.3797 26.7731 61.3796 23.599V19.706C61.3796 16.5317 62.188 13.8566 63.9374 11.8236C65.7369 9.73258 68.3187 8.76847 71.4659 8.76842C74.6133 8.76842 77.196 9.73229 78.9956 11.8236H78.9944C80.7836 13.855 81.6128 16.5298 81.6128 19.706V23.599Z" fill="black"/>
<path d="M41.663 0.728882V42.575H28.222V26.7H13.4422V42.575H0V0.728882H13.4422V15.9963H28.222V0.728882H41.663ZM29.4891 17.2634H12.1751V1.99601H1.26713V41.3079H12.1751V25.4329H29.4891V41.3079H40.3958V1.99601H29.4891V17.2634Z" fill="black"/>
</g>
</svg>
